<svg width="1235" height="568" viewBox="0 0 1235 568" fill="none" xmlns="http://www.w3.org/2000/svg">
<path d="M130.931 377.914L150.19 353.613L171.766 370.825L154.407 394.689L130.931 377.914Z" fill="#FCCD22"/>
<path d="M13.4946 439.543L14.0631 438.385L26.2977 422.247L19.4088 442.582L19.3752 443.279L19.5725 444.078L19.6476 444.713L99.1112 504.955L99.9352 505.579L101.835 506.008L103.076 506.083L105.474 505.446L107.933 504.567L108.955 504.115L110.621 503.14L112.046 501.26L113.44 498.851L114.132 495.982L114.031 493.018L113.436 491.195L112.558 489.663L106.093 498.191L105.467 499.016L104.697 499.298L103.844 499.446L103.042 499.199L102.179 498.544L24.3544 439.401L23.4048 439.186L22.0728 439.476L20.8855 440.309L20.0165 441.455L19.4088 442.582L26.2977 422.247L31.2813 426.025L26.0677 432.902L26.0901 433.28L26.9131 433.254L27.819 433.364L28.7339 433.624L104.195 490.831L108.861 484.839L31.2813 426.025L20.0975 417.547L19.5347 416.903L19.2455 415.818L19.3004 414.849L19.4428 414.09L19.8857 413.343L109.625 294.889L110.477 294.091L111.604 293.502L112.378 293.295L113.201 293.269L113.973 293.637L205.64 363.131L206.958 364.491L208.83 366.993L210.198 369.835L210.695 373.172L210.848 375.743L210.261 379.124L209.742 381.113L209.384 382.646L208.255 384.462L201.125 383.677L203.093 380.837L203.395 379.623L203.754 378.09L204.052 376.8L203.888 374.653L203.457 372.45L202.666 370.478L201.226 368.953L112.58 301.75L27.4245 414.077L117.601 482.44L118.011 483.04L118.5 483.699L119.107 484.448L119.644 485.288L120.076 486.266L120.343 486.974L120.58 487.803L120.821 488.708L121.088 489.415L201.125 383.677L208.255 384.462L114.862 507.654L113.544 508.821L112.005 510.037L110.269 511.103L107.014 512.462L104.847 513.202L101.12 513.553L98.6503 512.98L96.8115 512.308L94.4537 511.098L15.461 451.213L13.9519 449.78L12.8947 447.752L12.4373 445.095L12.5472 443.156L12.9228 441.275L13.4946 439.543Z" fill="#FCCD22"/>
<rect width="26.6804" height="6.54536" rx="3.27268" transform="matrix(0.995785 0.0917186 -0.219004 0.975724 89.5332 348.857)" fill="#D9D9D9"/>
<rect x="92.2715" y="447.789" width="66.3933" height="6.89403" rx="3.44702" transform="rotate(-52.834 92.2715 447.789)" fill="#FCCD22"/>
<rect x="80.1074" y="438.566" width="66.3933" height="6.89403" rx="3.44702" transform="rotate(-52.834 80.1074 438.566)" fill="#FCCD22"/>
<rect x="123.309" y="379.623" width="43.2649" height="6.89403" rx="3.44702" transform="rotate(-52.834 123.309 379.623)" fill="#FCCD22"/>
<rect x="148.578" y="398.783" width="43.2649" height="6.89403" rx="3.44702" transform="rotate(-52.834 148.578 398.783)" fill="#FCCD22"/>
<rect x="175.342" y="374.758" width="38.5387" height="8.05464" rx="4.02732" transform="rotate(-142.834 175.342 374.758)" fill="#FCCD22"/>
<rect x="154.07" y="402.949" width="38.1927" height="8.05464" rx="4.02732" transform="rotate(-142.834 154.07 402.949)" fill="#FCCD22"/>
<rect x="104.438" y="457.008" width="66.3933" height="6.89403" rx="3.44702" transform="rotate(-52.834 104.438 457.008)" fill="#FCCD22"/>
<rect x="116.6" y="466.23" width="116.332" height="6.89403" rx="3.44702" transform="rotate(-52.834 116.6 466.23)" fill="#FCCD22"/>
<rect x="67.5488" y="429.047" width="118.173" height="6.89403" rx="3.44702" transform="rotate(-52.834 67.5488 429.047)" fill="#FCCD22"/>
<rect x="77.4668" y="397.867" width="21.1722" height="4.53037" rx="2.26518" transform="rotate(-52.834 77.4668 397.867)" fill="#FCCD22"/>
<rect x="62.6328" y="386.623" width="21.1722" height="4.53037" rx="2.26518" transform="rotate(-52.834 62.6328 386.623)" fill="#FCCD22"/>
<rect width="24.4181" height="6.67641" rx="3.33821" transform="matrix(0.949445 0.313935 -0.392484 0.919759 80.0039 361.918)" fill="#FCCD22"/>
<rect width="24.4183" height="6.67638" rx="3.33819" transform="matrix(-0.558613 -0.829429 0.779627 -0.626245 111.395 358.754)" fill="#FCCD22"/>
<rect width="26.6802" height="6.54541" rx="3.2727" transform="matrix(-0.357289 -0.933994 0.880301 -0.474416 97.291 376.078)" fill="#FCCD22"/>
<rect width="26.6804" height="6.54536" rx="3.27268" transform="matrix(0.995785 0.0917186 -0.219004 0.975724 89.5332 348.859)" fill="#FCCD22"/>
<rect x="73.4316" y="410.691" width="23.4397" height="6.55878" rx="3.27939" transform="rotate(-142.834 73.4316 410.691)" fill="#FCCD22"/>
<rect x="62.6035" y="425.297" width="23.4397" height="6.55878" rx="3.27939" transform="rotate(-142.834 62.6035 425.297)" fill="#FCCD22"/>
<rect width="31.0027" height="6.17628" rx="3.08814" transform="matrix(0.990582 -0.136923 -0.0158145 0.999875 45.3945 407.125)" fill="#FCCD22"/>
<rect x="69.7754" y="392.037" width="21.1722" height="4.53037" rx="2.26518" transform="rotate(-52.834 69.7754 392.037)" fill="#FCCD22"/>
<rect x="81.0781" y="400.605" width="23.1443" height="6.32865" rx="3.16432" transform="rotate(-142.834 81.0781 400.605)" fill="#FCCD22"/>
<path d="M106.476 332.213L106.544 330.82V330.82C106.727 329.71 107.02 328.622 107.418 327.57L107.435 327.524V327.524C107.969 326.441 108.605 325.41 109.335 324.447L112.097 320.805C112.397 320.409 112.732 320.041 113.098 319.705L113.279 319.539C113.737 319.119 114.253 318.765 114.81 318.49L114.992 318.4C115.232 318.281 115.483 318.185 115.74 318.112L116.204 317.981C116.421 317.92 116.648 317.899 116.872 317.921L116.963 317.93C117.387 317.972 117.777 318.181 118.045 318.512V318.512C118.169 318.665 118.263 318.84 118.323 319.027L118.389 319.231C118.527 319.662 118.551 320.122 118.457 320.564V320.564C118.378 320.939 118.217 321.291 117.985 321.596L117.759 321.894C117.52 322.21 117.237 322.492 116.92 322.73L116.393 323.125V323.125C115.44 323.789 114.596 324.599 113.894 325.526L112.984 326.726C112.653 327.162 112.371 327.634 112.142 328.132L111.977 328.493C111.874 328.716 111.794 328.95 111.739 329.19L111.631 329.657C111.561 329.96 111.57 330.276 111.658 330.574V330.574C111.783 330.999 112.061 331.364 112.438 331.598L112.463 331.613C112.751 331.792 113.082 331.89 113.421 331.896L113.47 331.897C113.74 331.901 114.008 331.853 114.259 331.755L114.594 331.624C114.993 331.467 115.364 331.245 115.691 330.968L116.588 330.204L118.619 328.422L120.828 326.487L122.99 324.995C123.276 324.797 123.579 324.626 123.897 324.483V324.483C124.451 324.233 125.042 324.072 125.647 324.007L126.132 323.954C126.366 323.929 126.605 323.921 126.84 323.93V323.93C127.59 323.958 128.329 324.159 128.987 324.519V324.519C129.453 324.773 129.874 325.103 130.233 325.494L130.331 325.601C130.912 326.234 131.342 326.99 131.591 327.812L131.703 328.182C131.904 328.848 132.01 329.538 132.019 330.233L132.019 330.262C132.03 331.141 131.889 332.016 131.602 332.847L131.409 333.405C131.103 334.29 130.686 335.131 130.167 335.91L128.712 338.095L126.43 340.697L124.617 342.355L123.737 343.22C123.358 343.592 122.928 343.91 122.46 344.162L121.805 344.516C121.529 344.666 121.223 344.754 120.91 344.777V344.777C120.375 344.815 119.844 344.657 119.417 344.333V344.333C119.31 344.252 119.21 344.161 119.119 344.061L118.94 343.865C118.728 343.632 118.591 343.341 118.549 343.03V343.03C118.505 342.712 118.561 342.389 118.709 342.104L118.913 341.713C119.073 341.404 119.286 341.127 119.543 340.893L119.844 340.62C120.048 340.434 120.266 340.265 120.497 340.114L121.377 339.538L122.416 338.737L123.587 337.71C124.159 337.209 124.678 336.65 125.138 336.044V336.044C125.557 335.491 125.924 334.902 126.235 334.282L126.371 334.01L126.552 333.592C126.759 333.114 126.884 332.603 126.92 332.082L126.935 331.864C126.942 331.757 126.941 331.649 126.93 331.542L126.91 331.332C126.871 330.923 126.662 330.549 126.335 330.301V330.301C126.035 330.073 125.659 329.97 125.284 330.011L125.147 330.027C124.91 330.053 124.68 330.126 124.471 330.241L123.818 330.601C123.545 330.751 123.286 330.923 123.043 331.116L121.547 332.303L119.343 334.314L117.517 335.745V335.745C116.507 336.372 115.444 336.911 114.341 337.355L114.132 337.439L113.304 337.7C112.571 337.931 111.787 337.951 111.044 337.757V337.757C110.738 337.677 110.442 337.561 110.163 337.413L109.896 337.271C109.3 336.955 108.755 336.551 108.281 336.072L107.954 335.742C107.693 335.478 107.462 335.187 107.265 334.873V334.873C106.835 334.188 106.575 333.409 106.509 332.602L106.476 332.213Z" fill="#FCCD22"/>
<path d="M618.892 41.2676L628.143 29.5947L638.506 37.8626L630.168 49.3252L618.892 41.2676Z" fill="#FCCD22"/>
<path d="M562.482 70.87L562.755 70.314L568.632 62.5622L565.323 72.3301L565.307 72.6646L565.401 73.0486L565.437 73.3533L603.607 102.29L604.003 102.59L604.915 102.796L605.511 102.832L606.663 102.526L607.844 102.104L608.335 101.886L609.135 101.418L609.82 100.515L610.489 99.358L610.822 97.98L610.773 96.5561L610.487 95.6804L610.066 94.9446L606.96 99.0407L606.66 99.4371L606.29 99.5728L605.88 99.6435L605.495 99.525L605.08 99.2106L567.698 70.8018L567.242 70.6987L566.602 70.8379L566.032 71.2379L565.615 71.7884L565.323 72.3301L568.632 62.5622L571.026 64.377L568.521 67.6803L568.532 67.8619L568.927 67.8495L569.362 67.9019L569.802 68.027L606.049 95.5058L608.29 92.6275L571.026 64.377L565.654 60.3045L565.383 59.9955L565.244 59.474L565.271 59.0085L565.339 58.6442L565.552 58.2853L608.657 1.38757L609.066 1.00429L609.607 0.721026L609.979 0.621679L610.375 0.609243L610.745 0.786096L654.777 34.1665L655.409 34.8197L656.309 36.0217L656.966 37.3867L657.205 38.9898L657.278 40.2244L656.996 41.8489L656.747 42.8042L656.575 43.5406L656.032 44.4125L652.608 44.0358L653.553 42.6716L653.698 42.0882L653.871 41.3519L654.014 40.7322L653.935 39.7012L653.728 38.6428L653.348 37.6957L652.656 36.9634L610.076 4.68322L569.173 58.6377L612.488 91.4751L612.685 91.7633L612.92 92.08L613.211 92.4396L613.469 92.8432L613.677 93.3129L613.805 93.6529L613.919 94.0511L614.035 94.4857L614.163 94.8256L652.608 44.0358L656.032 44.4125L611.172 103.586L610.539 104.147L609.8 104.731L608.966 105.243L607.403 105.896L606.362 106.251L604.572 106.42L603.385 106.145L602.502 105.822L601.37 105.241L563.427 76.4758L562.702 75.7875L562.194 74.813L561.974 73.5367L562.027 72.6057L562.207 71.7021L562.482 70.87Z" fill="#FCCD22"/>
<rect width="12.8156" height="3.14398" rx="1.57199" transform="matrix(0.995785 0.0917186 -0.219004 0.975724 599.006 27.3105)" fill="#D9D9D9"/>
<rect x="600.322" y="74.8301" width="31.8911" height="3.31146" rx="1.65573" transform="rotate(-52.834 600.322 74.8301)" fill="#FCCD22"/>
<rect x="594.48" y="70.4004" width="31.8911" height="3.31146" rx="1.65573" transform="rotate(-52.834 594.48 70.4004)" fill="#FCCD22"/>
<rect x="615.23" y="42.0879" width="20.7817" height="3.31146" rx="1.65573" transform="rotate(-52.834 615.23 42.0879)" fill="#FCCD22"/>
<rect x="627.369" y="51.291" width="20.7817" height="3.31146" rx="1.65573" transform="rotate(-52.834 627.369 51.291)" fill="#FCCD22"/>
<rect x="640.225" y="39.752" width="18.5116" height="3.86894" rx="1.93447" transform="rotate(-142.834 640.225 39.752)" fill="#FCCD22"/>
<rect x="630.006" y="53.293" width="18.3453" height="3.86894" rx="1.93447" transform="rotate(-142.834 630.006 53.293)" fill="#FCCD22"/>
<rect x="606.166" y="79.2578" width="31.8911" height="3.31146" rx="1.65573" transform="rotate(-52.834 606.166 79.2578)" fill="#FCCD22"/>
<rect x="612.008" y="83.6895" width="55.8786" height="3.31146" rx="1.65573" transform="rotate(-52.834 612.008 83.6895)" fill="#FCCD22"/>
<rect x="588.447" y="65.8281" width="56.7629" height="3.31146" rx="1.65573" transform="rotate(-52.834 588.447 65.8281)" fill="#FCCD22"/>
<rect x="593.211" y="50.8516" width="10.1698" height="2.1761" rx="1.08805" transform="rotate(-52.834 593.211 50.8516)" fill="#FCCD22"/>
<rect x="586.084" y="45.4492" width="10.1698" height="2.1761" rx="1.08805" transform="rotate(-52.834 586.084 45.4492)" fill="#FCCD22"/>
<rect width="11.7289" height="3.20693" rx="1.60346" transform="matrix(0.949445 0.313935 -0.392484 0.919759 594.43 33.584)" fill="#FCCD22"/>
<rect width="11.729" height="3.20691" rx="1.60346" transform="matrix(-0.558613 -0.829429 0.779627 -0.626245 609.508 32.0625)" fill="#FCCD22"/>
<rect width="12.8155" height="3.144" rx="1.572" transform="matrix(-0.357289 -0.933994 0.880301 -0.474416 602.732 40.3848)" fill="#FCCD22"/>
<rect width="12.8156" height="3.14398" rx="1.57199" transform="matrix(0.995785 0.0917186 -0.219004 0.975724 599.006 27.3105)" fill="#FCCD22"/>
<rect x="591.271" y="57.0117" width="11.259" height="3.15042" rx="1.57521" transform="rotate(-142.834 591.271 57.0117)" fill="#FCCD22"/>
<rect x="586.07" y="64.0273" width="11.259" height="3.15042" rx="1.57521" transform="rotate(-142.834 586.07 64.0273)" fill="#FCCD22"/>
<rect width="14.8917" height="2.9667" rx="1.48335" transform="matrix(0.990582 -0.136923 -0.0158145 0.999875 577.805 55.2988)" fill="#FCCD22"/>
<rect x="589.516" y="48.0508" width="10.1698" height="2.1761" rx="1.08805" transform="rotate(-52.834 589.516 48.0508)" fill="#FCCD22"/>
<rect x="594.945" y="52.166" width="11.117" height="3.03988" rx="1.51994" transform="rotate(-142.834 594.945 52.166)" fill="#FCCD22"/>
<path d="M607.145 19.3151L607.177 18.646V18.646C607.265 18.1131 607.406 17.5903 607.597 17.0852L607.605 17.0632V17.0632C607.862 16.5426 608.167 16.0477 608.518 15.5852L609.845 13.8355C609.989 13.6454 610.15 13.4686 610.325 13.3073L610.412 13.2276C610.632 13.0256 610.88 12.8558 611.148 12.7234L611.235 12.6802C611.351 12.6232 611.471 12.577 611.595 12.542L611.817 12.4791C611.922 12.4496 612.03 12.4399 612.138 12.4505L612.182 12.4547C612.386 12.4746 612.573 12.5753 612.702 12.7342V12.7342C612.761 12.8077 612.806 12.8916 612.835 12.9816L612.867 13.0796C612.933 13.2866 612.945 13.5073 612.899 13.72V13.72C612.861 13.8998 612.784 14.069 612.673 14.2155L612.564 14.3589C612.449 14.5107 612.314 14.6457 612.161 14.7601L611.908 14.9501V14.9501C611.45 15.2691 611.045 15.6582 610.708 16.103L610.271 16.6795C610.112 16.8893 609.976 17.1159 609.866 17.3551L609.787 17.5282C609.738 17.6357 609.699 17.7478 609.673 17.863L609.621 18.0876C609.587 18.233 609.592 18.3847 609.634 18.5279V18.5279C609.694 18.7323 609.827 18.9073 610.008 19.0197L610.02 19.0271C610.159 19.113 610.318 19.16 610.481 19.1629L610.504 19.1633C610.634 19.1656 610.762 19.1425 610.883 19.0953L611.044 19.0322C611.236 18.9571 611.414 18.8506 611.571 18.7171L612.002 18.3503L612.977 17.4945L614.038 16.5648L615.077 15.8482C615.214 15.7532 615.36 15.6709 615.512 15.6023V15.6023C615.779 15.4822 616.063 15.405 616.353 15.3736L616.586 15.3484C616.699 15.3362 616.813 15.3323 616.926 15.3365V15.3365C617.286 15.3499 617.641 15.4469 617.957 15.6195V15.6195C618.181 15.7418 618.383 15.9001 618.556 16.088L618.603 16.1395C618.882 16.4435 619.089 16.8065 619.208 17.2013L619.262 17.3792C619.359 17.6988 619.41 18.0305 619.414 18.3644L619.414 18.3784C619.419 18.8006 619.352 19.2205 619.214 19.6196L619.121 19.8878C618.974 20.3127 618.774 20.7171 618.524 21.0913L617.825 22.1408L616.729 23.3907L615.858 24.187L615.436 24.6022C615.254 24.7812 615.047 24.9336 614.822 25.055L614.508 25.2249C614.375 25.2967 614.228 25.3394 614.078 25.35V25.35C613.821 25.3683 613.566 25.2926 613.361 25.137V25.137C613.309 25.0979 613.261 25.0543 613.218 25.0065L613.131 24.9121C613.03 24.8005 612.964 24.6605 612.944 24.5109V24.5109C612.923 24.3583 612.95 24.203 613.021 24.0664L613.118 23.8783C613.195 23.7302 613.298 23.5969 613.421 23.4846L613.566 23.3533C613.664 23.2641 613.769 23.1829 613.879 23.1103L614.302 22.8337L614.801 22.4492L615.364 21.9559C615.638 21.7148 615.888 21.4466 616.109 21.1554V21.1554C616.31 20.8901 616.486 20.6068 616.635 20.3091L616.701 20.1786L616.788 19.9779C616.887 19.7479 616.947 19.5026 616.964 19.2526L616.972 19.1477C616.975 19.0961 616.975 19.0444 616.97 18.993L616.96 18.892C616.941 18.6956 616.841 18.5161 616.684 18.3969V18.3969C616.539 18.2876 616.359 18.2378 616.179 18.2578L616.113 18.2651C615.999 18.2778 615.889 18.3128 615.788 18.368L615.475 18.5409C615.344 18.6129 615.219 18.6957 615.102 18.7886L614.384 19.3585L613.325 20.3245L612.448 21.0118V21.0118C611.963 21.3132 611.452 21.5719 610.922 21.785L610.822 21.8253L610.424 21.9508C610.072 22.062 609.696 22.0715 609.339 21.9781V21.9781C609.192 21.9397 609.05 21.8843 608.916 21.8132L608.787 21.745C608.501 21.5932 608.24 21.3989 608.012 21.1688L607.855 21.0103C607.729 20.8838 607.618 20.7439 607.524 20.5931V20.5931C607.317 20.2638 607.192 19.8896 607.16 19.502L607.145 19.3151Z" fill="#FCCD22"/>
<path d="M994.188 190.688L1010.35 204.358L998.139 218.708L982.23 206.345L994.188 190.688Z" fill="#FCCD22"/>
<path d="M954.68 109.208L955.458 109.621L966.205 118.321L952.478 113.178L952.003 113.14L951.453 113.257L951.019 113.295L908.183 166.215L907.739 166.763L907.405 168.05L907.327 168.896L907.709 170.546L908.256 172.243L908.542 172.951L909.172 174.109L910.424 175.122L912.037 176.125L913.98 176.66L916.005 176.655L917.262 176.289L918.327 175.723L912.647 171.126L912.098 170.681L911.922 170.149L911.84 169.564L912.026 169.022L912.491 168.447L954.541 116.622L954.709 115.979L954.54 115.063L953.997 114.235L953.234 113.617L952.478 113.178L966.205 118.321L963.519 121.639L958.939 117.932L958.681 117.939L958.68 118.502L958.586 119.117L958.389 119.736L917.711 169.99L921.699 173.305L963.519 121.639L969.548 114.191L969.999 113.821L970.746 113.648L971.406 113.706L971.921 113.82L972.421 114.138L1051.31 177.95L1051.83 178.549L1052.21 179.33L1052.34 179.863L1052.34 180.426L1052.07 180.944L1002.65 241.991L1001.7 242.861L999.949 244.084L997.98 244.956L995.692 245.223L993.935 245.272L991.64 244.798L990.294 244.401L989.255 244.122L988.041 243.312L988.731 238.464L990.626 239.869L991.449 240.102L992.487 240.38L993.361 240.611L994.829 240.545L996.342 240.299L997.705 239.802L998.777 238.853L1046.56 179.818L971.757 119.267L923.146 179.321L922.728 179.588L922.267 179.908L921.743 180.305L921.158 180.653L920.481 180.928L919.993 181.094L919.422 181.238L918.799 181.383L918.31 181.549L988.731 238.464L988.041 243.312L905.999 176.904L905.231 175.98L904.435 174.903L903.745 173.696L902.888 171.445L902.431 169.95L902.272 167.399L902.716 165.726L903.215 164.486L904.092 162.903L946.673 110.297L947.684 109.298L949.091 108.62L950.915 108.366L952.235 108.483L953.511 108.78L954.68 109.208Z" fill="#FCCD22"/>
<rect width="18.2165" height="4.46897" rx="2.23449" transform="matrix(-0.123334 0.992365 -0.968267 -0.249917 1014.91 163.068)" fill="#D9D9D9"/>
<rect x="947.346" y="162.791" width="45.3313" height="4.70703" rx="2.35352" transform="rotate(38.9881 947.346 162.791)" fill="#FCCD22"/>
<rect x="953.902" y="154.689" width="45.3313" height="4.70703" rx="2.35352" transform="rotate(38.9881 953.902 154.689)" fill="#FCCD22"/>
<rect x="993.188" y="185.449" width="29.54" height="4.70703" rx="2.35352" transform="rotate(38.9881 993.188 185.449)" fill="#FCCD22"/>
<rect x="979.564" y="202.279" width="29.54" height="4.70703" rx="2.35352" transform="rotate(38.9881 979.564 202.279)" fill="#FCCD22"/>
<rect x="995.379" y="221.064" width="26.313" height="5.49946" rx="2.74973" transform="rotate(-51.0119 995.379 221.064)" fill="#FCCD22"/>
<rect x="976.604" y="205.938" width="26.0768" height="5.49946" rx="2.74973" transform="rotate(-51.0119 976.604 205.938)" fill="#FCCD22"/>
<rect x="940.789" y="170.891" width="45.3313" height="4.70703" rx="2.35352" transform="rotate(38.9881 940.789 170.891)" fill="#FCCD22"/>
<rect x="934.23" y="178.992" width="79.4279" height="4.70703" rx="2.35352" transform="rotate(38.9881 934.23 178.992)" fill="#FCCD22"/>
<rect x="960.672" y="146.326" width="80.6849" height="4.70703" rx="2.35352" transform="rotate(38.9881 960.672 146.326)" fill="#FCCD22"/>
<rect x="981.73" y="153.77" width="14.4557" height="3.09319" rx="1.5466" transform="rotate(38.9881 981.73 153.77)" fill="#FCCD22"/>
<rect x="989.727" y="143.891" width="14.4557" height="3.09319" rx="1.5466" transform="rotate(38.9881 989.727 143.891)" fill="#FCCD22"/>
<rect width="16.6719" height="4.55845" rx="2.27922" transform="matrix(-0.343964 0.938983 -0.906814 -0.421531 1006.21 156.281)" fill="#FCCD22"/>
<rect width="16.6721" height="4.55842" rx="2.27921" transform="matrix(0.846771 -0.531958 0.601139 0.799145 1007.69 177.771)" fill="#FCCD22"/>
<rect width="18.2164" height="4.469" rx="2.2345" transform="matrix(0.944882 -0.327411 0.446186 0.89494 996.172 167.771)" fill="#FCCD22"/>
<rect width="18.2165" height="4.46897" rx="2.23449" transform="matrix(-0.123334 0.992365 -0.968267 -0.249917 1014.91 163.068)" fill="#FCCD22"/>
<rect x="973.066" y="150.736" width="16.0039" height="4.47813" rx="2.23907" transform="rotate(-51.0119 973.066 150.736)" fill="#FCCD22"/>
<rect x="963.334" y="143.031" width="16.0039" height="4.47813" rx="2.23907" transform="rotate(-51.0119 963.334 143.031)" fill="#FCCD22"/>
<rect width="21.1676" height="4.21697" rx="2.10849" transform="matrix(0.105357 0.994434 -0.998867 -0.0475986 976.111 131.682)" fill="#FCCD22"/>
<rect x="985.877" y="148.648" width="14.4557" height="3.09319" rx="1.5466" transform="rotate(38.9881 985.877 148.648)" fill="#FCCD22"/>
<rect x="979.785" y="156.174" width="15.8022" height="4.321" rx="2.1605" transform="rotate(-51.0119 979.785 156.174)" fill="#FCCD22"/>
<path d="M1025.91 174.992L1026.85 175.068V175.068C1027.61 175.217 1028.34 175.441 1029.05 175.735L1029.08 175.748V175.748C1029.81 176.136 1030.5 176.592 1031.14 177.111L1033.57 179.075C1033.83 179.288 1034.08 179.525 1034.3 179.782L1034.41 179.909C1034.68 180.231 1034.91 180.59 1035.09 180.977L1035.15 181.103C1035.22 181.269 1035.28 181.442 1035.33 181.62L1035.41 181.939C1035.44 182.089 1035.45 182.244 1035.43 182.396L1035.42 182.458C1035.39 182.747 1035.24 183.008 1035 183.184V183.184C1034.9 183.265 1034.78 183.326 1034.65 183.363L1034.51 183.403C1034.21 183.488 1033.89 183.494 1033.59 183.42V183.42C1033.34 183.358 1033.1 183.241 1032.9 183.076L1032.7 182.915C1032.49 182.745 1032.31 182.546 1032.15 182.325L1031.89 181.957V181.957C1031.46 181.291 1030.92 180.698 1030.31 180.199L1029.51 179.552C1029.22 179.317 1028.9 179.114 1028.57 178.947L1028.32 178.826C1028.17 178.751 1028.02 178.692 1027.85 178.649L1027.54 178.565C1027.33 178.51 1027.12 178.51 1026.91 178.563V178.563C1026.62 178.64 1026.36 178.821 1026.2 179.073L1026.18 179.09C1026.06 179.283 1025.98 179.507 1025.97 179.738L1025.97 179.771C1025.96 179.955 1025.99 180.139 1026.05 180.313L1026.13 180.544C1026.23 180.82 1026.37 181.078 1026.56 181.307L1027.06 181.936L1028.23 183.36L1029.5 184.91L1030.47 186.417C1030.6 186.617 1030.71 186.828 1030.8 187.048V187.048C1030.96 187.432 1031.06 187.838 1031.09 188.252L1031.11 188.584C1031.13 188.745 1031.13 188.908 1031.12 189.068V189.068C1031.08 189.579 1030.93 190.079 1030.67 190.521V190.521C1030.48 190.833 1030.25 191.113 1029.97 191.35L1029.9 191.414C1029.45 191.797 1028.93 192.074 1028.36 192.226L1028.11 192.294C1027.65 192.417 1027.18 192.475 1026.7 192.466L1026.68 192.465C1026.08 192.454 1025.49 192.338 1024.93 192.124L1024.55 191.981C1023.95 191.753 1023.39 191.45 1022.87 191.079L1021.41 190.038L1019.68 188.425L1018.59 187.151L1018.02 186.532C1017.77 186.265 1017.57 185.965 1017.4 185.64L1017.18 185.186C1017.08 184.994 1017.03 184.783 1017.02 184.569V184.569C1017 184.203 1017.12 183.844 1017.35 183.56V183.56C1017.41 183.488 1017.48 183.422 1017.55 183.362L1017.68 183.244C1017.85 183.105 1018.05 183.018 1018.26 182.995V182.995C1018.48 182.973 1018.7 183.018 1018.89 183.125L1019.15 183.272C1019.36 183.388 1019.54 183.54 1019.7 183.72L1019.88 183.932C1020 184.075 1020.11 184.228 1020.21 184.388L1020.58 185.001L1021.11 185.728L1021.78 186.549C1022.11 186.95 1022.48 187.317 1022.89 187.644V187.644C1023.25 187.942 1023.65 188.205 1024.06 188.43L1024.25 188.529L1024.53 188.662C1024.85 188.814 1025.2 188.91 1025.55 188.946L1025.7 188.961C1025.77 188.968 1025.85 188.969 1025.92 188.965L1026.06 188.955C1026.34 188.937 1026.6 188.803 1026.78 188.585V188.585C1026.94 188.385 1027.02 188.131 1027 187.875L1026.99 187.78C1026.98 187.618 1026.93 187.46 1026.86 187.315L1026.63 186.861C1026.53 186.672 1026.42 186.491 1026.29 186.321L1025.52 185.275L1024.19 183.727L1023.26 182.449V182.449C1022.85 181.746 1022.5 181.009 1022.23 180.247L1022.17 180.103L1022.01 179.532C1021.87 179.027 1021.87 178.492 1022.02 177.988V177.988C1022.08 177.781 1022.17 177.582 1022.28 177.395L1022.38 177.215C1022.61 176.816 1022.9 176.453 1023.23 176.139L1023.47 175.924C1023.65 175.751 1023.85 175.6 1024.07 175.472V175.472C1024.55 175.193 1025.09 175.033 1025.64 175.005L1025.91 174.992Z" fill="#FCCD22"/>
<path d="M226.691 131.454L226.856 131.264L227.125 131.031L227.363 130.872L227.787 130.575L224.032 121.482L223.943 120.971L223.979 120.47L224.088 119.999L224.345 119.589L224.622 119.231L224.839 119.02L225.307 118.826L233.494 115.445L231.198 109.885L231.097 109.44L231.082 108.96L231.243 108.468L231.417 108.152L231.695 107.794L231.911 107.583L232.232 107.329L242.984 102.889L243.598 102.757L244.225 102.802L244.717 102.963L245.106 103.168L245.442 103.394L245.865 103.828L252.324 119.468L258.562 146.939L242.596 108.28L236.675 110.725L240.774 120.65L240.811 121.182L240.775 121.683L240.561 122.197L240.327 122.659L239.872 123.03L239.3 123.266L238.885 123.437L238.53 123.462L237.977 123.447L237.558 123.316L237.169 123.112L236.906 122.916L236.41 122.452L235.273 119.698L229.478 122.091L239.775 147.022L245.574 144.639L240.252 131.753L240.205 131.346L240.211 130.918L240.29 130.521L240.442 130.153L240.72 129.795L241.019 129.489L241.34 129.235L241.704 129.085L242.037 129.008L242.391 128.984L242.819 128.989L243.29 129.099L243.731 129.282L244.287 129.6L244.615 129.951L252.641 149.384L258.562 146.939L252.324 119.468L278.607 108.613L272.126 92.921L272.045 92.2851L272.133 91.7621L272.316 91.3217L272.625 90.8902L272.976 90.5627L273.474 90.2963L283.862 86.0058L284.476 85.8738L285.302 85.9586L285.868 86.1508L286.277 86.4072L286.626 86.8105L288.944 92.4223L297.099 89.0544L298.016 88.919L298.737 89.0467L299.346 89.3428L299.704 89.6207L300.001 90.0454L303.778 99.1906L304.371 99.0066L305.028 98.9785L305.52 99.1401L305.909 99.3446L306.392 99.6315L306.625 99.9004L306.775 100.264L309.994 108.058L310.148 108.725L310.042 109.498L309.715 110.181L309.23 110.624L308.628 110.934L311.326 117.465L312.405 120.079L312.455 120.788L312.358 121.437L312.041 121.993L311.637 122.342L311.109 122.682L302.85 126.093L299.431 130.181L291.319 110.54L291.123 109.77L291.19 109.195L291.342 108.828L291.598 108.418L291.928 108.038L292.218 107.858L292.686 107.665L293.352 107.511L293.884 107.474L294.406 107.562L294.92 107.776L295.343 108.209L295.683 108.738L301.041 121.713L306.859 119.31L296.607 94.4884L290.79 96.891L291.927 99.6449L291.986 100.229L291.846 100.773L291.59 101.183L291.281 101.615L290.878 101.964L290.307 102.2L289.589 102.375L288.993 102.256L288.5 102.094L287.965 101.829L287.564 101.447L283.422 91.4184L277.605 93.821L283.074 106.768L288.567 120.07L293.571 132.48L299.431 130.181L302.85 126.093L304.868 130.978L304.987 131.415L304.96 131.791L304.768 132.357L304.39 133.06L303.966 133.357L303.519 133.602L293.027 137.936L292.361 138.089L291.713 137.992L291.126 137.748L290.621 137.409L290.324 136.984L289.208 134.282L284.1 121.915L282.298 117.551L280.474 113.134L254.125 124.016L255.949 128.433L282.298 117.551L284.1 121.915L257.818 132.77L263.891 147.475L264.045 148.142L264 148.768L263.86 149.313L263.491 149.891L263.057 150.313L251.889 154.926L251.055 154.966L250.459 154.847L250.049 154.591L249.617 154.283L249.372 153.836L247.377 149.004L238.962 152.479L238.296 152.633L237.773 152.545L237.427 152.444L237.06 152.291L236.733 151.94L236.509 151.546L232.689 142.297L232.149 142.459L231.565 142.518L230.865 142.442L230.403 142.207L229.971 141.899L229.653 141.422L226.477 133.732L226.302 133.013L226.304 132.283L226.413 131.812L226.691 131.454Z" fill="#FCCD22"/>
<path d="M960.758 340.397L961.572 340.445L962.701 340.676L963.581 340.974L965.183 341.478L981.131 313.855L982.267 312.617L983.627 311.719L985.054 311.069L986.614 310.918L988.083 310.924L989.054 311.064L990.474 311.884L1015.35 326.244L1025.1 309.354L1026.04 308.216L1027.24 307.227L1028.83 306.668L1029.98 306.492L1031.45 306.499L1032.42 306.639L1033.71 306.961L1066.37 325.818L1067.92 327.135L1069.05 328.836L1069.6 330.42L1069.85 331.823L1069.93 333.134L1069.65 335.077L1042.22 382.588L983.947 452.911L1051.75 335.475L1033.76 325.09L1016.36 355.238L1015.06 356.385L1013.7 357.284L1011.96 357.751L1010.31 358.06L1008.46 357.623L1006.72 356.621L1005.46 355.892L1004.69 355.03L1003.64 353.579L1003.15 352.243L1002.91 350.84L1002.89 349.778L1003.1 347.586L1007.93 339.22L990.328 329.057L946.604 404.789L964.189 414.985L986.789 375.84L987.743 374.917L988.854 374.086L990.032 373.503L991.276 373.169L992.745 373.175L994.123 373.34L995.41 373.662L996.514 374.299L997.37 375.004L998.134 375.866L998.966 376.977L999.614 378.404L1000.01 379.898L1000.3 381.956L1000.04 383.492L965.96 442.526L983.947 452.911L1042.22 382.588L1122.06 428.683L1149.58 381.014L1151.06 379.551L1152.57 378.744L1154.07 378.344L1155.79 378.283L1157.32 378.538L1158.99 379.291L1190.55 397.511L1192.1 398.829L1193.51 401.118L1194.14 402.951L1194.29 404.512L1193.94 406.206L1184.1 423.253L1208.87 437.555L1211.03 439.644L1212.13 441.751L1212.57 443.9L1212.57 445.37L1212.06 446.972L1196.02 474.753L1197.67 475.913L1199.04 477.546L1199.6 479.131L1199.84 480.533L1200.05 482.343L1199.82 483.472L1199.19 484.577L1185.52 508.253L1184.11 509.965L1181.91 511.222L1179.51 511.731L1177.41 511.361L1175.43 510.425L1163.97 530.266L1159.39 538.206L1157.66 539.736L1155.8 540.768L1153.75 541.053L1152.05 540.706L1150.13 540.02L1125.05 525.535L1107.78 524.828L1142.23 465.164L1143.82 463.136L1145.43 462.171L1146.68 461.837L1148.24 461.686L1149.86 461.783L1150.9 462.172L1152.32 462.992L1154.03 464.4L1155.18 465.694L1155.99 467.212L1156.45 468.954L1156.17 470.897L1155.49 472.816L1132.73 512.228L1150.4 522.431L1193.93 447.03L1176.26 436.827L1171.43 445.193L1170.05 446.498L1168.37 447.214L1166.81 447.366L1165.09 447.426L1163.4 447.08L1161.67 446.078L1159.8 444.578L1158.92 442.811L1158.37 441.226L1157.99 439.326L1158.18 437.541L1175.77 407.077L1158.1 396.874L1135.63 436.517L1112.3 476.925L1090.29 514.31L1107.78 524.828L1125.05 525.535L1116.48 540.373L1115.59 541.544L1114.57 542.218L1112.74 542.843L1110.18 543.262L1108.58 542.758L1107.07 542.096L1075.2 523.694L1073.49 522.285L1072.46 520.427L1071.92 518.436L1071.8 516.468L1072.3 514.866L1077.04 506.658L1098.73 469.091L1106.38 455.832L1114.13 442.415L1034.09 396.204L1026.34 409.621L1106.38 455.832L1098.73 469.091L1018.89 422.996L993.1 467.666L991.691 469.378L989.991 470.501L988.315 471.217L986.099 471.411L984.157 471.131L950.233 451.545L948.48 449.481L947.607 447.714L947.456 446.154L947.396 444.435L948.058 442.924L956.533 428.244L930.972 413.486L929.261 412.078L928.455 410.56L928.03 409.473L927.697 408.228L927.953 406.692L928.524 405.338L944.745 377.242L943.259 376.173L941.954 374.789L940.765 372.84L940.456 371.188L940.397 369.47L940.992 367.709L954.48 344.348L955.98 342.479L957.862 341.04L959.289 340.391L960.758 340.397Z" fill="#FCCD22"/>
</svg>
