<svg width="388" height="278" viewBox="0 0 388 278" fill="none" xmlns="http://www.w3.org/2000/svg">
<path d="M66.8501 133.562L78.7617 166.473L69.4527 169.842L60.1446 144.125L54.0326 146.337L51.4291 139.143L66.8501 133.562ZM98.4771 160.081C95.6562 161.102 92.9048 161.336 90.2229 160.782C87.5411 160.229 85.1082 158.894 82.9242 156.777C80.7602 154.618 79.0372 151.768 77.7553 148.226C76.4734 144.684 75.9785 141.407 76.2707 138.394C76.5829 135.339 77.592 132.74 79.2983 130.598C81.0045 128.457 83.2681 126.875 86.089 125.854C88.8786 124.845 91.6143 124.617 94.2962 125.17C96.978 125.724 99.4009 127.08 101.565 129.239C103.749 131.356 105.482 134.185 106.764 137.727C108.046 141.268 108.531 144.567 108.218 147.622C107.926 150.635 106.927 153.212 105.221 155.354C103.515 157.496 101.267 159.072 98.4771 160.081ZM95.7204 152.465C97.2876 151.898 98.2534 150.697 98.6178 148.864C99.0022 146.988 98.5989 144.404 97.4077 141.113C96.2166 137.822 94.8786 135.594 93.3937 134.43C91.9289 133.223 90.4129 132.903 88.8457 133.471C87.2472 134.049 86.2557 135.277 85.8713 137.153C85.5068 138.986 85.9202 141.548 87.1114 144.84C88.3025 148.131 89.6305 150.38 91.0954 151.586C92.5802 152.751 94.1219 153.043 95.7204 152.465ZM130.662 148.432C127.841 149.453 125.09 149.687 122.408 149.133C119.726 148.58 117.293 147.245 115.109 145.128C112.945 142.969 111.223 140.119 109.941 136.577C108.659 133.035 108.164 129.758 108.456 126.745C108.768 123.69 109.777 121.091 111.484 118.949C113.19 116.808 115.453 115.226 118.274 114.205C121.064 113.195 123.8 112.967 126.481 113.521C129.163 114.075 131.586 115.431 133.75 117.59C135.934 119.707 137.667 122.536 138.949 126.078C140.231 129.619 140.716 132.918 140.404 135.973C140.112 138.986 139.112 141.563 137.406 143.705C135.7 145.847 133.452 147.423 130.662 148.432ZM127.906 140.816C129.473 140.249 130.439 139.048 130.803 137.215C131.188 135.339 130.784 132.755 129.593 129.464C128.402 126.173 127.064 123.945 125.579 122.781C124.114 121.574 122.598 121.254 121.031 121.822C119.432 122.4 118.441 123.628 118.057 125.504C117.692 127.337 118.105 129.899 119.297 133.191C120.488 136.482 121.816 138.731 123.281 139.937C124.765 141.102 126.307 141.394 127.906 140.816ZM162.848 136.783C160.027 137.804 157.275 138.038 154.593 137.484C151.912 136.931 149.479 135.596 147.295 133.479C145.131 131.32 143.408 128.47 142.126 124.928C140.844 121.386 140.349 118.109 140.641 115.096C140.953 112.041 141.963 109.442 143.669 107.3C145.375 105.159 147.639 103.577 150.46 102.556C153.249 101.546 155.985 101.318 158.667 101.872C161.349 102.426 163.771 103.782 165.935 105.941C168.119 108.058 169.852 110.887 171.134 114.429C172.416 117.97 172.901 121.269 172.589 124.324C172.297 127.337 171.298 129.914 169.591 132.056C167.885 134.198 165.637 135.774 162.848 136.783ZM160.091 129.167C161.658 128.6 162.624 127.399 162.988 125.566C163.373 123.69 162.969 121.106 161.778 117.815C160.587 114.524 159.249 112.296 157.764 111.132C156.299 109.925 154.783 109.605 153.216 110.173C151.618 110.751 150.626 111.978 150.242 113.855C149.877 115.688 150.291 118.25 151.482 121.541C152.673 124.833 154.001 127.081 155.466 128.288C156.951 129.452 158.492 129.745 160.091 129.167ZM91.0861 197.585C93.8757 196.576 96.4976 196.229 98.952 196.546C101.406 196.863 103.545 197.826 105.368 199.435C107.211 201.002 108.615 203.117 109.579 205.781C110.532 208.414 110.854 210.92 110.546 213.301C110.226 215.65 109.325 217.713 107.841 219.491C106.346 221.237 104.361 222.558 101.885 223.455C98.9698 224.51 96.3584 224.444 94.0506 223.259L98.1686 234.637L89.2357 237.87L81.357 216.102C80.4041 213.469 80.1602 210.934 80.6252 208.497C81.0902 206.06 82.2212 203.896 84.0182 202.005C85.8152 200.114 88.1711 198.641 91.0861 197.585ZM97.6227 216.968C99.2212 216.389 100.308 215.376 100.882 213.927C101.477 212.436 101.445 210.781 100.787 208.963C100.129 207.145 99.1003 205.869 97.7003 205.135C96.3203 204.358 94.831 204.259 93.2324 204.838C91.6339 205.417 90.553 206.446 89.9898 207.926C89.4152 209.375 89.4569 211.008 90.1149 212.826C90.7842 214.675 91.7875 215.978 93.1249 216.735C94.4936 217.48 95.9929 217.558 97.6227 216.968ZM135.943 181.829L143.481 202.657C145.194 207.389 145.207 211.391 143.519 214.66C141.873 217.95 138.684 220.451 133.951 222.164C131.475 223.061 129.054 223.618 126.687 223.837C124.351 224.044 122.233 223.871 120.331 223.319L121.312 215.891C122.621 216.375 124.113 216.579 125.788 216.505C127.505 216.45 129.116 216.151 130.621 215.606C132.877 214.79 134.351 213.671 135.043 212.251C135.734 210.831 135.711 209.102 134.974 207.065L134.769 206.501C133.515 209.011 131.462 210.782 128.61 211.814C125.319 213.005 122.334 212.987 119.656 211.758C117.01 210.518 114.983 207.955 113.576 204.068L109.05 191.562L117.983 188.329L121.982 199.378C122.685 201.321 123.556 202.601 124.595 203.218C125.633 203.834 126.842 203.893 128.221 203.394C129.632 202.884 130.594 201.968 131.109 200.647C131.655 199.315 131.565 197.646 130.839 195.64L127.01 185.062L135.943 181.829ZM158.404 176.251C160.881 175.355 163.204 175.064 165.373 175.378C167.531 175.66 169.404 176.524 170.991 177.97C172.598 179.374 173.827 181.251 174.678 183.602C175.551 186.015 175.696 188.374 175.111 190.677C174.547 192.937 173.355 194.981 171.535 196.81C169.735 198.596 167.472 199.982 164.745 200.969C160.263 202.591 156.185 202.49 152.511 200.664C148.837 198.839 145.991 195.137 143.971 189.558C140.182 179.089 142.609 171.298 151.252 166.185L162.766 159.359L166.694 166.392L156.706 172.293C154.161 173.782 152.45 175.323 151.573 176.916C150.716 178.467 150.543 180.338 151.052 182.528C152.569 179.569 155.019 177.477 158.404 176.251ZM162.342 194.182C163.94 193.603 165.007 192.632 165.541 191.269C166.107 189.894 166.112 188.439 165.557 186.903C164.967 185.273 164.037 184.174 162.768 183.605C161.487 183.005 160.063 182.989 158.496 183.556C156.898 184.135 155.783 185.07 155.151 186.362C154.551 187.643 154.546 189.098 155.136 190.728C155.703 192.295 156.654 193.404 157.989 194.056C159.324 194.707 160.775 194.749 162.342 194.182ZM186.606 192.791C185.101 193.335 183.651 193.293 182.253 192.665C180.856 192.036 179.879 190.954 179.323 189.418C178.756 187.851 178.798 186.4 179.449 185.065C180.132 183.719 181.241 182.768 182.777 182.212C184.344 181.645 185.805 181.666 187.16 182.275C188.515 182.883 189.476 183.971 190.043 185.538C190.599 187.074 190.541 188.531 189.87 189.908C189.23 191.274 188.142 192.235 186.606 192.791Z" fill="#FCCD22"/>
<path d="M281.991 139.184C279.315 138.502 276.593 140.118 275.911 142.794C275.229 145.47 276.846 148.192 279.521 148.874L281.991 139.184ZM347.198 140.671L349.394 145.164L347.198 140.671ZM381.888 74.2882L376.947 75.0508L381.888 74.2882ZM379.997 62.0326L375.056 62.7952L379.997 62.0326ZM352.4 15.3408L348.987 18.995L352.4 15.3408ZM250.739 89.0816L261.987 55.6513L252.51 52.4622L241.261 85.8925L250.739 89.0816ZM291.706 23.16L314.559 13.1279L310.539 3.97137L287.686 14.0034L291.706 23.16ZM348.987 18.995L354.739 24.367L361.565 17.0585L355.813 11.6866L348.987 18.995ZM375.056 62.7952L376.947 75.0508L386.83 73.5257L384.939 61.2701L375.056 62.7952ZM345.003 136.179L342.181 137.558L346.572 146.543L349.394 145.164L345.003 136.179ZM294.76 142.438L281.991 139.184L279.521 148.874L292.29 152.128L294.76 142.438ZM342.181 137.558C327.453 144.757 310.645 146.486 294.76 142.438L292.29 152.128C310.474 156.762 329.713 154.783 346.572 146.543L342.181 137.558ZM368.81 114.711C363.042 123.956 354.793 131.394 345.003 136.179L349.394 145.164C360.867 139.556 370.534 130.838 377.294 120.004L368.81 114.711ZM376.947 75.0508C379.071 88.8185 376.184 102.892 368.81 114.711L377.294 120.004C385.936 106.153 389.32 89.6604 386.83 73.5257L376.947 75.0508ZM354.739 24.367C365.628 34.5364 372.783 48.0703 375.056 62.7952L384.939 61.2701C382.324 44.3291 374.092 28.7584 361.565 17.0585L354.739 24.367ZM336.858 11.9172C341.378 13.3414 345.523 15.7598 348.987 18.995L355.813 11.6866C351.257 7.43226 345.807 4.25203 339.862 2.37928L336.858 11.9172ZM314.559 13.1279C321.6 10.0371 329.523 9.60688 336.858 11.9172L339.862 2.37928C330.218 -0.658843 319.798 -0.0931139 310.539 3.97137L314.559 13.1279ZM265.387 47.7011C271.125 36.7742 280.405 28.121 291.706 23.16L287.686 14.0034C274.31 19.8755 263.325 30.1181 256.533 43.0519L265.387 47.7011ZM261.987 55.6513C262.908 52.9153 264.045 50.2569 265.387 47.7011L256.533 43.0519C254.945 46.077 253.599 49.2237 252.51 52.4622L261.987 55.6513Z" fill="#FCCD22"/>
<path d="M249.06 84.0267L192.348 57.7723L1.76507 127.448L56.5178 277.107L246.917 207.493L273.436 150.208L249.06 84.0267ZM239.966 199.933L62.1741 264.933L13.9351 133.092L191.921 68.0144L241.511 90.9723L263.182 149.784L239.97 199.925L239.966 199.933Z" fill="#FCCD22"/>
<path d="M201.637 124.742C197.254 134.211 201.402 145.493 210.903 149.892C220.405 154.291 231.688 150.162 236.075 140.684C240.463 131.207 236.315 119.925 226.813 115.526C217.311 111.127 206.025 115.264 201.637 124.742ZM227.462 136.697C225.276 141.42 219.626 143.48 214.888 141.286C210.148 139.093 208.061 133.46 210.25 128.729C212.44 123.998 218.082 121.934 222.829 124.132C227.576 126.329 229.652 131.966 227.462 136.697Z" fill="#FCCD22"/>
</svg>
