<svg width="388" height="278" viewBox="0 0 388 278" fill="none" xmlns="http://www.w3.org/2000/svg">
<path d="M69.4027 146.197C74.0102 144.53 77.7513 144.239 80.626 145.326C83.5321 146.401 85.5523 148.506 86.6868 151.64C87.4242 153.677 87.572 155.751 87.1302 157.86C86.7085 159.927 85.6035 161.869 83.8151 163.686C82.0468 165.461 79.5798 166.921 76.4141 168.067C74.0947 168.906 71.6888 169.458 69.1965 169.722C66.7356 169.975 64.503 169.879 62.4988 169.434L63.3014 161.221C64.9355 161.622 66.6212 161.774 68.3585 161.677C70.1272 161.568 71.8108 161.225 73.4093 160.646C75.0078 160.068 76.1695 159.311 76.8942 158.375C77.639 157.396 77.8129 156.358 77.4158 155.261C77.0188 154.164 76.248 153.504 75.1035 153.28C73.959 153.056 72.1957 153.375 69.8136 154.238L60.8807 157.471L55.5664 137.646L76.5352 130.056L79.1388 137.25L65.8804 142.049L67.193 146.997L69.4027 146.197ZM107.981 156.641C105.16 157.662 102.409 157.896 99.727 157.342C97.0451 156.789 94.6122 155.454 92.4282 153.337C90.2643 151.178 88.5413 148.328 87.2594 144.786C85.9775 141.244 85.4826 137.967 85.7748 134.954C86.0869 131.899 87.0961 129.3 88.8024 127.159C90.5086 125.017 92.7722 123.435 95.5931 122.414C98.3827 121.405 101.118 121.177 103.8 121.73C106.482 122.284 108.905 123.64 111.069 125.799C113.253 127.916 114.986 130.745 116.268 134.287C117.55 137.829 118.035 141.127 117.722 144.182C117.43 147.195 116.431 149.772 114.725 151.914C113.019 154.056 110.771 155.632 107.981 156.641ZM105.224 149.025C106.792 148.458 107.757 147.257 108.122 145.424C108.506 143.548 108.103 140.964 106.912 137.673C105.721 134.382 104.383 132.154 102.898 130.99C101.433 129.783 99.9169 129.464 98.3498 130.031C96.7512 130.609 95.7598 131.837 95.3753 133.713C95.0109 135.546 95.4243 138.109 96.6154 141.4C97.8066 144.691 99.1346 146.94 100.599 148.147C102.084 149.311 103.626 149.604 105.224 149.025ZM140.166 144.992C137.345 146.013 134.594 146.247 131.912 145.693C129.23 145.14 126.797 143.805 124.614 141.688C122.45 139.529 120.727 136.679 119.445 133.137C118.163 129.595 117.668 126.318 117.96 123.305C118.272 120.25 119.281 117.651 120.988 115.51C122.694 113.368 124.957 111.786 127.778 110.765C130.568 109.756 133.304 109.528 135.985 110.081C138.667 110.635 141.09 111.991 143.254 114.15C145.438 116.267 147.171 119.096 148.453 122.638C149.735 126.18 150.22 129.478 149.908 132.533C149.616 135.546 148.616 138.123 146.91 140.265C145.204 142.407 142.956 143.983 140.166 144.992ZM137.41 137.376C138.977 136.809 139.943 135.608 140.307 133.775C140.692 131.899 140.288 129.315 139.097 126.024C137.906 122.733 136.568 120.505 135.083 119.341C133.618 118.134 132.102 117.815 130.535 118.382C128.937 118.96 127.945 120.188 127.561 122.064C127.196 123.897 127.61 126.46 128.801 129.751C129.992 133.042 131.32 135.291 132.785 136.498C134.27 137.662 135.811 137.954 137.41 137.376ZM91.0861 197.585C93.8757 196.576 96.4976 196.229 98.952 196.546C101.406 196.863 103.545 197.826 105.368 199.435C107.211 201.002 108.615 203.117 109.579 205.781C110.532 208.414 110.854 210.92 110.546 213.301C110.226 215.65 109.325 217.713 107.841 219.491C106.346 221.237 104.361 222.558 101.885 223.455C98.9698 224.51 96.3584 224.444 94.0506 223.259L98.1686 234.637L89.2357 237.87L81.357 216.102C80.4041 213.469 80.1602 210.934 80.6252 208.497C81.0902 206.06 82.2212 203.896 84.0182 202.005C85.8152 200.114 88.1711 198.641 91.0861 197.585ZM97.6227 216.968C99.2212 216.389 100.308 215.376 100.882 213.927C101.477 212.436 101.445 210.781 100.787 208.963C100.129 207.145 99.1003 205.869 97.7003 205.135C96.3203 204.358 94.831 204.259 93.2324 204.838C91.6339 205.417 90.553 206.446 89.9898 207.926C89.4152 209.375 89.4569 211.008 90.1149 212.826C90.7842 214.675 91.7875 215.978 93.1249 216.735C94.4936 217.48 95.9929 217.558 97.6227 216.968ZM135.943 181.829L143.481 202.657C145.194 207.389 145.207 211.391 143.519 214.66C141.873 217.95 138.684 220.451 133.951 222.164C131.475 223.061 129.054 223.618 126.687 223.837C124.351 224.044 122.233 223.871 120.331 223.319L121.312 215.891C122.621 216.375 124.113 216.579 125.788 216.505C127.505 216.45 129.116 216.151 130.621 215.606C132.877 214.79 134.351 213.671 135.043 212.251C135.734 210.831 135.711 209.102 134.974 207.065L134.769 206.501C133.515 209.011 131.462 210.782 128.61 211.814C125.319 213.005 122.334 212.987 119.656 211.758C117.01 210.518 114.983 207.955 113.576 204.068L109.05 191.562L117.983 188.329L121.982 199.378C122.685 201.321 123.556 202.601 124.595 203.218C125.633 203.834 126.842 203.893 128.221 203.394C129.632 202.884 130.594 201.968 131.109 200.647C131.655 199.315 131.565 197.646 130.839 195.64L127.01 185.062L135.943 181.829ZM158.404 176.251C160.881 175.355 163.204 175.064 165.373 175.378C167.531 175.66 169.404 176.524 170.991 177.97C172.598 179.374 173.827 181.251 174.678 183.602C175.551 186.015 175.696 188.374 175.111 190.677C174.547 192.937 173.355 194.981 171.535 196.81C169.735 198.596 167.472 199.982 164.745 200.969C160.263 202.591 156.185 202.49 152.511 200.664C148.837 198.839 145.991 195.137 143.971 189.558C140.182 179.089 142.609 171.298 151.252 166.185L162.766 159.359L166.694 166.392L156.706 172.293C154.161 173.782 152.45 175.323 151.573 176.916C150.716 178.467 150.543 180.338 151.052 182.528C152.569 179.569 155.019 177.477 158.404 176.251ZM162.342 194.182C163.94 193.603 165.007 192.632 165.541 191.269C166.107 189.894 166.112 188.439 165.557 186.903C164.967 185.273 164.037 184.174 162.768 183.605C161.487 183.005 160.063 182.989 158.496 183.556C156.898 184.135 155.783 185.07 155.151 186.362C154.551 187.643 154.546 189.098 155.136 190.728C155.703 192.295 156.654 193.404 157.989 194.056C159.324 194.707 160.775 194.749 162.342 194.182ZM186.606 192.791C185.101 193.335 183.651 193.293 182.253 192.665C180.856 192.036 179.879 190.954 179.323 189.418C178.756 187.851 178.798 186.4 179.449 185.065C180.132 183.719 181.241 182.768 182.777 182.212C184.344 181.645 185.805 181.666 187.16 182.275C188.515 182.883 189.476 183.971 190.043 185.538C190.599 187.074 190.541 188.531 189.87 189.908C189.23 191.274 188.142 192.235 186.606 192.791Z" fill="#FCCD22"/>
<path d="M281.991 139.184C279.315 138.502 276.593 140.118 275.911 142.794C275.229 145.47 276.846 148.192 279.521 148.874L281.991 139.184ZM347.198 140.671L349.394 145.164L347.198 140.671ZM381.888 74.2882L376.947 75.0508L381.888 74.2882ZM379.997 62.0326L375.056 62.7952L379.997 62.0326ZM352.4 15.3408L348.987 18.995L352.4 15.3408ZM250.739 89.0816L261.987 55.6513L252.51 52.4622L241.261 85.8925L250.739 89.0816ZM291.706 23.16L314.559 13.1279L310.539 3.97137L287.686 14.0034L291.706 23.16ZM348.987 18.995L354.739 24.367L361.565 17.0585L355.813 11.6866L348.987 18.995ZM375.056 62.7952L376.947 75.0508L386.83 73.5257L384.939 61.2701L375.056 62.7952ZM345.003 136.179L342.181 137.558L346.572 146.543L349.394 145.164L345.003 136.179ZM294.76 142.438L281.991 139.184L279.521 148.874L292.29 152.128L294.76 142.438ZM342.181 137.558C327.453 144.757 310.645 146.486 294.76 142.438L292.29 152.128C310.474 156.762 329.713 154.783 346.572 146.543L342.181 137.558ZM368.81 114.711C363.042 123.956 354.793 131.394 345.003 136.179L349.394 145.164C360.867 139.556 370.534 130.838 377.294 120.004L368.81 114.711ZM376.947 75.0508C379.071 88.8185 376.184 102.892 368.81 114.711L377.294 120.004C385.936 106.153 389.32 89.6604 386.83 73.5257L376.947 75.0508ZM354.739 24.367C365.628 34.5364 372.783 48.0703 375.056 62.7952L384.939 61.2701C382.324 44.3291 374.092 28.7584 361.565 17.0585L354.739 24.367ZM336.858 11.9172C341.378 13.3414 345.523 15.7598 348.987 18.995L355.813 11.6866C351.257 7.43226 345.807 4.25203 339.862 2.37928L336.858 11.9172ZM314.559 13.1279C321.6 10.0371 329.523 9.60688 336.858 11.9172L339.862 2.37928C330.218 -0.658843 319.798 -0.0931139 310.539 3.97137L314.559 13.1279ZM265.387 47.7011C271.125 36.7742 280.405 28.121 291.706 23.16L287.686 14.0034C274.31 19.8755 263.325 30.1181 256.533 43.0519L265.387 47.7011ZM261.987 55.6513C262.908 52.9153 264.045 50.2569 265.387 47.7011L256.533 43.0519C254.945 46.077 253.599 49.2237 252.51 52.4622L261.987 55.6513Z" fill="#FCCD22"/>
<path d="M249.06 84.0267L192.348 57.7723L1.76507 127.448L56.5178 277.107L246.917 207.493L273.436 150.208L249.06 84.0267ZM239.966 199.933L62.1741 264.933L13.9351 133.092L191.921 68.0144L241.511 90.9723L263.182 149.784L239.97 199.925L239.966 199.933Z" fill="#FCCD22"/>
<path d="M201.637 124.742C197.254 134.211 201.402 145.493 210.903 149.892C220.405 154.291 231.688 150.162 236.075 140.684C240.463 131.207 236.315 119.925 226.813 115.526C217.311 111.127 206.025 115.264 201.637 124.742ZM227.462 136.697C225.276 141.42 219.626 143.48 214.888 141.286C210.148 139.093 208.061 133.46 210.25 128.729C212.44 123.998 218.082 121.934 222.829 124.132C227.576 126.329 229.652 131.966 227.462 136.697Z" fill="#FCCD22"/>
</svg>
