<svg width="388" height="278" viewBox="0 0 388 278" fill="none" xmlns="http://www.w3.org/2000/svg">
<path d="M64.5432 133.652C69.276 131.939 73.5107 131.984 77.2473 133.787C80.9838 135.589 83.7993 139.108 85.6939 144.342C87.0552 148.104 87.4928 151.614 87.0066 154.874C86.5404 158.092 85.2304 160.888 83.0767 163.262C80.9544 165.626 78.1536 167.437 74.6745 168.696C72.8252 169.366 70.9749 169.787 69.1235 169.961C67.2835 170.166 65.6318 170.108 64.1685 169.787L65.1373 161.886C67.1442 162.435 69.37 162.268 71.8148 161.383C74.1656 160.532 75.8293 159.203 76.806 157.396C77.8027 155.547 77.9783 153.339 77.3328 150.772C76.0308 153.051 73.8596 154.741 70.8193 155.841C68.7506 156.59 66.7012 156.853 64.671 156.631C62.6295 156.377 60.8079 155.654 59.2064 154.461C57.6248 153.225 56.4653 151.589 55.7279 149.552C54.9225 147.326 54.7777 145.163 55.2934 143.062C55.8292 140.918 56.9042 139.041 58.5185 137.428C60.1528 135.773 62.1611 134.515 64.5432 133.652ZM70.6127 148.365C71.9604 147.877 72.9213 147.104 73.4953 146.046C74.058 144.956 74.1124 143.784 73.6587 142.53C73.2162 141.308 72.4357 140.474 71.3172 140.028C70.2187 139.539 68.9642 139.55 67.5537 140.06C66.2373 140.537 65.2921 141.304 64.718 142.363C64.1754 143.41 64.1366 144.576 64.6017 145.861C65.0555 147.115 65.826 147.971 66.9132 148.428C68.0317 148.874 69.2649 148.853 70.6127 148.365ZM109.955 155.927C107.135 156.948 104.383 157.182 101.701 156.628C99.0194 156.074 96.5865 154.739 94.4025 152.623C92.2385 150.464 90.5156 147.613 89.2337 144.071C87.9518 140.53 87.4569 137.252 87.749 134.24C88.0612 131.185 89.0704 128.586 90.7766 126.444C92.4829 124.302 94.7464 122.721 97.5674 121.7C100.357 120.69 103.093 120.462 105.774 121.016C108.456 121.569 110.879 122.926 113.043 125.085C115.227 127.201 116.96 130.03 118.242 133.572C119.524 137.114 120.009 140.413 119.697 143.468C119.405 146.48 118.405 149.058 116.699 151.2C114.993 153.341 112.745 154.917 109.955 155.927ZM107.199 148.31C108.766 147.743 109.732 146.543 110.096 144.709C110.481 142.833 110.077 140.25 108.886 136.958C107.695 133.667 106.357 131.44 104.872 130.276C103.407 129.069 101.891 128.749 100.324 129.316C98.7255 129.895 97.734 131.122 97.3496 132.998C96.9852 134.832 97.3986 137.394 98.5897 140.685C99.7809 143.976 101.109 146.225 102.574 147.432C104.059 148.596 105.6 148.889 107.199 148.31ZM142.141 144.278C139.32 145.299 136.568 145.532 133.887 144.979C131.205 144.425 128.772 143.09 126.588 140.974C124.424 138.815 122.701 135.964 121.419 132.422C120.137 128.881 119.642 125.603 119.934 122.591C120.246 119.535 121.256 116.937 122.962 114.795C124.668 112.653 126.932 111.072 129.753 110.051C132.542 109.041 135.278 108.813 137.96 109.367C140.642 109.92 143.065 111.277 145.229 113.436C147.412 115.552 149.145 118.381 150.427 121.923C151.709 125.465 152.194 128.764 151.882 131.819C151.59 134.831 150.591 137.409 148.884 139.551C147.178 141.692 144.93 143.268 142.141 144.278ZM139.384 136.661C140.951 136.094 141.917 134.894 142.281 133.06C142.666 131.184 142.262 128.601 141.071 125.309C139.88 122.018 138.542 119.791 137.057 118.627C135.592 117.42 134.076 117.1 132.509 117.667C130.911 118.246 129.919 119.473 129.535 121.349C129.17 123.183 129.584 125.745 130.775 129.036C131.966 132.327 133.294 134.576 134.759 135.783C136.244 136.947 137.785 137.24 139.384 136.661ZM91.0861 197.585C93.8757 196.576 96.4976 196.229 98.952 196.546C101.406 196.863 103.545 197.826 105.368 199.435C107.211 201.002 108.615 203.117 109.579 205.781C110.532 208.414 110.854 210.92 110.546 213.301C110.226 215.65 109.325 217.713 107.841 219.491C106.346 221.237 104.361 222.558 101.885 223.455C98.9698 224.51 96.3584 224.444 94.0506 223.259L98.1686 234.637L89.2357 237.87L81.357 216.102C80.4041 213.469 80.1602 210.934 80.6252 208.497C81.0902 206.06 82.2212 203.896 84.0182 202.005C85.8152 200.114 88.1711 198.641 91.0861 197.585ZM97.6227 216.968C99.2212 216.389 100.308 215.376 100.882 213.927C101.477 212.436 101.445 210.781 100.787 208.963C100.129 207.145 99.1003 205.869 97.7003 205.135C96.3203 204.358 94.831 204.259 93.2324 204.838C91.6339 205.417 90.553 206.446 89.9898 207.926C89.4152 209.375 89.4569 211.008 90.1149 212.826C90.7842 214.675 91.7875 215.978 93.1249 216.735C94.4936 217.48 95.9929 217.558 97.6227 216.968ZM135.943 181.829L143.481 202.657C145.194 207.389 145.207 211.391 143.519 214.66C141.873 217.95 138.684 220.451 133.951 222.164C131.475 223.061 129.054 223.618 126.687 223.837C124.351 224.044 122.233 223.871 120.331 223.319L121.312 215.891C122.621 216.375 124.113 216.579 125.788 216.505C127.505 216.45 129.116 216.151 130.621 215.606C132.877 214.79 134.351 213.671 135.043 212.251C135.734 210.831 135.711 209.102 134.974 207.065L134.769 206.501C133.515 209.011 131.462 210.782 128.61 211.814C125.319 213.005 122.334 212.987 119.656 211.758C117.01 210.518 114.983 207.955 113.576 204.068L109.05 191.562L117.983 188.329L121.982 199.378C122.685 201.321 123.556 202.601 124.595 203.218C125.633 203.834 126.842 203.893 128.221 203.394C129.632 202.884 130.594 201.968 131.109 200.647C131.655 199.315 131.565 197.646 130.839 195.64L127.01 185.062L135.943 181.829ZM158.404 176.251C160.881 175.355 163.204 175.064 165.373 175.378C167.531 175.66 169.404 176.524 170.991 177.97C172.598 179.374 173.827 181.251 174.678 183.602C175.551 186.015 175.696 188.374 175.111 190.677C174.547 192.937 173.355 194.981 171.535 196.81C169.735 198.596 167.472 199.982 164.745 200.969C160.263 202.591 156.185 202.49 152.511 200.664C148.837 198.839 145.991 195.137 143.971 189.558C140.182 179.089 142.609 171.298 151.252 166.185L162.766 159.359L166.694 166.392L156.706 172.293C154.161 173.782 152.45 175.323 151.573 176.916C150.716 178.467 150.543 180.338 151.052 182.528C152.569 179.569 155.019 177.477 158.404 176.251ZM162.342 194.182C163.94 193.603 165.007 192.632 165.541 191.269C166.107 189.894 166.112 188.439 165.557 186.903C164.967 185.273 164.037 184.174 162.768 183.605C161.487 183.005 160.063 182.989 158.496 183.556C156.898 184.135 155.783 185.07 155.151 186.362C154.551 187.643 154.546 189.098 155.136 190.728C155.703 192.295 156.654 193.404 157.989 194.056C159.324 194.707 160.775 194.749 162.342 194.182ZM186.606 192.791C185.101 193.335 183.651 193.293 182.253 192.665C180.856 192.036 179.879 190.954 179.323 189.418C178.756 187.851 178.798 186.4 179.449 185.065C180.132 183.719 181.241 182.768 182.777 182.212C184.344 181.645 185.805 181.666 187.16 182.275C188.515 182.883 189.476 183.971 190.043 185.538C190.599 187.074 190.541 188.531 189.87 189.908C189.23 191.274 188.142 192.235 186.606 192.791Z" fill="#FCCD22"/>
<path d="M281.991 139.184C279.315 138.502 276.593 140.118 275.911 142.794C275.229 145.47 276.846 148.192 279.521 148.874L281.991 139.184ZM347.198 140.671L349.394 145.164L347.198 140.671ZM381.888 74.2882L376.947 75.0508L381.888 74.2882ZM379.997 62.0326L375.056 62.7952L379.997 62.0326ZM352.4 15.3408L348.987 18.995L352.4 15.3408ZM250.739 89.0816L261.987 55.6513L252.51 52.4622L241.261 85.8925L250.739 89.0816ZM291.706 23.16L314.559 13.1279L310.539 3.97137L287.686 14.0034L291.706 23.16ZM348.987 18.995L354.739 24.367L361.565 17.0585L355.813 11.6866L348.987 18.995ZM375.056 62.7952L376.947 75.0508L386.83 73.5257L384.939 61.2701L375.056 62.7952ZM345.003 136.179L342.181 137.558L346.572 146.543L349.394 145.164L345.003 136.179ZM294.76 142.438L281.991 139.184L279.521 148.874L292.29 152.128L294.76 142.438ZM342.181 137.558C327.453 144.757 310.645 146.486 294.76 142.438L292.29 152.128C310.474 156.762 329.713 154.783 346.572 146.543L342.181 137.558ZM368.81 114.711C363.042 123.956 354.793 131.394 345.003 136.179L349.394 145.164C360.867 139.556 370.534 130.838 377.294 120.004L368.81 114.711ZM376.947 75.0508C379.071 88.8185 376.184 102.892 368.81 114.711L377.294 120.004C385.936 106.153 389.32 89.6604 386.83 73.5257L376.947 75.0508ZM354.739 24.367C365.628 34.5364 372.783 48.0703 375.056 62.7952L384.939 61.2701C382.324 44.3291 374.092 28.7584 361.565 17.0585L354.739 24.367ZM336.858 11.9172C341.378 13.3414 345.523 15.7598 348.987 18.995L355.813 11.6866C351.257 7.43226 345.807 4.25203 339.862 2.37928L336.858 11.9172ZM314.559 13.1279C321.6 10.0371 329.523 9.60688 336.858 11.9172L339.862 2.37928C330.218 -0.658843 319.798 -0.0931139 310.539 3.97137L314.559 13.1279ZM265.387 47.7011C271.125 36.7742 280.405 28.121 291.706 23.16L287.686 14.0034C274.31 19.8755 263.325 30.1181 256.533 43.0519L265.387 47.7011ZM261.987 55.6513C262.908 52.9153 264.045 50.2569 265.387 47.7011L256.533 43.0519C254.945 46.077 253.599 49.2237 252.51 52.4622L261.987 55.6513Z" fill="#FCCD22"/>
<path d="M249.06 84.0267L192.348 57.7723L1.76507 127.448L56.5178 277.107L246.917 207.493L273.436 150.208L249.06 84.0267ZM239.966 199.933L62.1741 264.933L13.9351 133.092L191.921 68.0144L241.511 90.9723L263.182 149.784L239.97 199.925L239.966 199.933Z" fill="#FCCD22"/>
<path d="M201.637 124.742C197.254 134.211 201.402 145.493 210.903 149.892C220.405 154.291 231.688 150.162 236.075 140.684C240.463 131.207 236.315 119.925 226.813 115.526C217.311 111.127 206.025 115.264 201.637 124.742ZM227.462 136.697C225.276 141.42 219.626 143.48 214.888 141.286C210.148 139.093 208.061 133.46 210.25 128.729C212.44 123.998 218.082 121.934 222.829 124.132C227.576 126.329 229.652 131.966 227.462 136.697Z" fill="#FCCD22"/>
</svg>
